<?xml version="1.0" encoding="UTF-8" standalone="no"?>
<svg
   xmlns:dc="http://purl.org/dc/elements/1.1/"
   xmlns:cc="http://creativecommons.org/ns#"
   xmlns:rdf="http://www.w3.org/1999/02/22-rdf-syntax-ns#"
   xmlns:svg="http://www.w3.org/2000/svg"
   xmlns="http://www.w3.org/2000/svg"
   xmlns:sodipodi="http://sodipodi.sourceforge.net/DTD/sodipodi-0.dtd"
   xmlns:inkscape="http://www.inkscape.org/namespaces/inkscape"
   width="99"
   height="99"
   viewBox="0 0 99 99"
   fill="none"
   version="1.1"
   id="svg11"
   sodipodi:docname="adobeXd.svg"
   inkscape:version="1.0 (4035a4fb49, 2020-05-01)">
  <metadata
     id="metadata15">
    <rdf:RDF>
      <cc:Work
         rdf:about="">
        <dc:format>image/svg+xml</dc:format>
        <dc:type
           rdf:resource="http://purl.org/dc/dcmitype/StillImage" />
      </cc:Work>
    </rdf:RDF>
  </metadata>
  <sodipodi:namedview
     inkscape:document-rotation="0"
     pagecolor="#ffffff"
     bordercolor="#666666"
     borderopacity="1"
     objecttolerance="10"
     gridtolerance="10"
     guidetolerance="10"
     inkscape:pageopacity="0"
     inkscape:pageshadow="2"
     inkscape:window-width="1920"
     inkscape:window-height="1051"
     id="namedview13"
     showgrid="false"
     inkscape:zoom="6.2853936"
     inkscape:cx="80.867077"
     inkscape:cy="40.754216"
     inkscape:window-x="2391"
     inkscape:window-y="-9"
     inkscape:window-maximized="1"
     inkscape:current-layer="g4" />
  <g
     clip-path="url(#clip0)"
     id="g4">
    <path
       d="M 81.4678,1.24037 H 17.5292 C 15.2261,1.23752 12.945,1.68906 10.8166,2.56913 8.68816,3.4492 6.75428,4.74051 5.12569,6.3691 3.4971,7.99769 2.20579,9.93157 1.32572,12.06 c -0.880068,2.1284 -1.33160856,4.4095 -1.32875835,6.7126 v 61.4543 c -0.00285021,2.3032 0.44869035,4.5843 1.32875835,6.7127 0.88007,2.1284 2.17138,4.0623 3.79997,5.6909 1.62859,1.6285 3.56247,2.9199 5.69091,3.7999 2.1284,0.8801 4.4095,1.3316 6.7126,1.3288 h 63.9386 c 2.3032,0.0028 4.5843,-0.4487 6.7127,-1.3288 2.1284,-0.88 4.0622,-2.1714 5.6908,-3.7999 1.6286,-1.6286 2.9199,-3.5625 3.8,-5.6909 0.8801,-2.1284 1.3316,-4.4095 1.3288,-6.7127 V 18.7726 C 99.0029,16.4695 98.5514,14.1884 97.6713,12.06 96.7912,9.93157 95.4999,7.99769 93.8713,6.3691 92.2427,4.74051 90.3089,3.4492 88.1805,2.56913 86.0521,1.68906 83.771,1.23752 81.4678,1.24037 Z M 94.8266,78.6182 c 0.0114,1.967 -0.3661,3.9169 -1.1107,5.7376 -0.7447,1.8206 -1.8419,3.4762 -3.2285,4.8714 -1.3866,1.3953 -3.0353,2.5027 -4.8513,3.2586 -1.8161,0.756 -3.7636,1.1455 -5.7307,1.1463 H 19.0947 C 15.126,93.6264 11.3215,92.0473 8.51515,89.241 5.70885,86.4347 4.12975,82.6302 4.12402,78.6615 V 20.335 C 4.12975,16.3663 5.70885,12.5618 8.51515,9.75547 11.3215,6.94917 15.126,5.37007 19.0947,5.36434 h 60.7612 c 3.9702,8.2e-4 7.7776,1.57834 10.585,4.38571 2.8073,2.80735 4.3849,6.61475 4.3857,10.58495 z"
       fill="#333333"
       id="path2"
       style="fill:#333333;fill-opacity:1"
       sodipodi:nodetypes="cccscccsccccccsccssscccccccccccccccc" />
    <path
       style="opacity:0.998;fill:#333333;fill-opacity:1;stroke-width:0.152068;stroke-linecap:round;stroke-dasharray:0.304136, 0.912407"
       d="M 17.907782,95.101296 C 14.513067,94.785685 11.047225,93.175214 8.6175563,90.78441 6.5203961,88.720798 5.1585003,86.347055 4.3691631,83.37959 L 4.0529041,82.190633 4.0186001,50.43617 C 3.9806914,15.344798 3.9349163,17.693887 4.7025227,15.338564 6.4624018,9.9385544 10.852553,6.0759769 16.548703,4.9159679 c 0.958215,-0.1951383 2.782246,-0.2062276 33.92184,-0.2062276 31.824956,0 32.94341,0.00718 33.94841,0.2181994 3.279671,0.6886038 5.974335,2.1588643 8.192721,4.4701073 2.127921,2.21699 3.448655,4.752004 4.073793,7.819231 0.192534,0.944667 0.20433,2.835746 0.20433,32.757008 V 81.72875 l -0.269322,1.203066 c -1.375154,6.142835 -5.726877,10.484492 -11.97058,11.94289 L 83.610657,95.11745 50.990161,95.13084 C 33.04889,95.13814 18.161819,95.12494 17.907782,95.10129 Z M 72.212469,70.695268 c 2.470798,-0.267718 5.900415,-1.199984 7.760859,-2.109623 l 0.750559,-0.366976 -0.0398,-0.461883 c -0.02189,-0.254036 -0.07385,-10.074825 -0.11547,-21.823977 l -0.07567,-21.362095 h -3.752801 -3.752801 l -0.02993,5.731793 -0.02993,5.731793 -2.452684,0.05466 c -1.915844,0.0427 -2.701391,0.1086 -3.588966,0.30109 -5.461509,1.184435 -9.468667,4.459055 -11.651061,9.52116 -0.998899,2.316968 -1.473299,4.845827 -1.473299,7.853646 0,8.755356 3.796595,14.561504 10.773202,16.47551 1.940925,0.532485 5.186843,0.724802 7.677807,0.454899 z M 26.492033,70.054493 c 0.147802,-0.103525 0.595988,-0.878592 1.018263,-1.760928 1.638796,-3.424242 4.575482,-9.697122 5.873364,-12.54574 0.752332,-1.651233 1.397228,-3.036123 1.433101,-3.077534 0.03588,-0.04141 0.68734,1.231654 1.447704,2.829033 3.231137,6.788026 7.011288,14.462088 7.1904,14.597196 0.148937,0.112346 1.121471,0.138834 4.239566,0.11547 l 4.04629,-0.03032 0.03484,-0.299912 C 51.800328,69.668501 50.10159,66.30057 45.89617,58.225252 42.643348,51.979124 39.981948,46.811085 39.981948,46.740718 c 0,-0.07037 2.532965,-5.020653 5.628814,-11.000637 3.095848,-5.979988 5.610971,-10.965434 5.589162,-11.07877 -0.03694,-0.191997 -0.296479,-0.208146 -3.80047,-0.236489 -3.543478,-0.02867 -3.772067,-0.01799 -3.955478,0.184677 -0.276966,0.306041 -4.370569,9.033198 -7.009497,14.943548 -0.531681,1.190793 -0.997194,2.165077 -1.034475,2.165077 -0.03728,0 -0.946235,-1.909598 -2.019897,-4.243551 C 31.03024,32.366372 27.615576,25.150498 27.372894,24.780118 l -0.175037,-0.267139 h -4.042439 c -3.715026,0 -4.048607,0.01607 -4.118579,0.198416 -0.05105,0.133052 1.788253,3.914465 5.583462,11.478962 l 5.659601,11.280549 -5.355093,10.200677 c -2.945301,5.610369 -5.591814,10.656158 -5.881144,11.212862 -0.430304,0.827957 -0.500163,1.043382 -0.383813,1.183576 0.221479,0.266865 7.449687,0.254381 7.832181,-0.01353 z"
       id="path844" />
    <path
       style="opacity:0.998;fill:#333333;fill-opacity:1;stroke-width:0.150341;stroke-linecap:round;stroke-dasharray:0.300681, 0.902044"
       d="m 67.99395,62.790071 c -1.53199,-0.332601 -3.123809,-1.303297 -4.126922,-2.516612 -0.926995,-1.121244 -1.727724,-3.036437 -2.072694,-4.957486 -0.235225,-1.309916 -0.203936,-4.841408 0.0534,-6.027154 0.87509,-4.032199 2.983172,-6.522455 6.318799,-7.46433 1.075935,-0.303811 3.296655,-0.344127 4.143883,-0.07523 l 0.513716,0.163045 0.02914,10.34564 0.02914,10.345638 -0.793712,0.180527 c -0.974838,0.221722 -3.086776,0.224796 -4.094755,0.006 z"
       id="path846" />
  </g>
  <defs
     id="defs9">
    <clipPath
       id="clip0">
      <rect
         width="99"
         height="99"
         fill="white"
         id="rect6" />
    </clipPath>
  </defs>
</svg>
