<?xml version="1.0" encoding="UTF-8" standalone="no"?>
<svg
   xmlns:dc="http://purl.org/dc/elements/1.1/"
   xmlns:cc="http://creativecommons.org/ns#"
   xmlns:rdf="http://www.w3.org/1999/02/22-rdf-syntax-ns#"
   xmlns:svg="http://www.w3.org/2000/svg"
   xmlns="http://www.w3.org/2000/svg"
   xmlns:sodipodi="http://sodipodi.sourceforge.net/DTD/sodipodi-0.dtd"
   xmlns:inkscape="http://www.inkscape.org/namespaces/inkscape"
   sodipodi:docname="anaconda.svg"
   inkscape:version="1.0 (4035a4fb49, 2020-05-01)"
   id="svg2636"
   version="1.1"
   viewBox="0 0 573.57086 574.12933"
   height="574.12933mm"
   width="573.57086mm">
  <defs
     id="defs2630" />
  <sodipodi:namedview
     fit-margin-bottom="0"
     fit-margin-right="0"
     fit-margin-left="0"
     fit-margin-top="0"
     inkscape:window-maximized="0"
     inkscape:window-y="0"
     inkscape:window-x="96"
     inkscape:window-height="1055"
     inkscape:window-width="1424"
     showgrid="false"
     inkscape:document-rotation="0"
     inkscape:current-layer="layer1"
     inkscape:document-units="mm"
     inkscape:cy="1503.271"
     inkscape:cx="876.5945"
     inkscape:zoom="0.175"
     inkscape:pageshadow="2"
     inkscape:pageopacity="0.0"
     borderopacity="1.0"
     bordercolor="#666666"
     pagecolor="#ffffff"
     id="base" />
  <metadata
     id="metadata2633">
    <rdf:RDF>
      <cc:Work
         rdf:about="">
        <dc:format>image/svg+xml</dc:format>
        <dc:type
           rdf:resource="http://purl.org/dc/dcmitype/StillImage" />
        <dc:title></dc:title>
      </cc:Work>
    </rdf:RDF>
  </metadata>
  <g
     transform="translate(166.86454,277.09922)"
     id="layer1"
     inkscape:groupmode="layer"
     inkscape:label="Layer 1">
    <path
       d="M 99.103802,296.29861 C 50.223476,292.77409 2.3278167,276.37017 -38.412967,249.165 c -7.102864,-21.72363 -6.978068,-46.12998 -8.299568,-69.21141 21.487395,0.66892 43.7986883,-0.77254 65.450181,-1.67052 C 83.458917,218.73813 172.02479,215.19986 233.64718,170.2944 296.9867,126.54934 329.15303,43.647502 311.98329,-31.456185 294.64263,-120.09839 208.45385,-189.86801 117.72605,-185.78225 c -34.08653,3.31042 12.82954,-27.68456 20.77253,-40.24278 0.69383,-17.83637 -31.36444,-32.65887 -46.114548,-46.55246 15.313288,-8.17238 53.722568,-3.47347 77.873078,0.16 98.2333,16.57792 184.58862,88.48868 218.30911,182.282005 39.57334,102.336564 12.98978,226.574715 -65.99704,302.950765 -57.54247,58.8255 -141.39136,89.43657 -223.465378,83.48333 z m -165.09964,-67.62739 c -19.562331,-17.10525 -37.677752,-36.34833 -51.449132,-58.49472 22.755812,7.43353 64.334314,-2.84249 53.204724,34.48219 -1.454086,4.21189 7.805974,34.02334 -1.755592,24.01253 z m 23.4652,-67.16839 c -9.513187,-5.43228 -1.757291,-31.13966 0.38743,-41.2616 5.844584,18.43052 57.015025,47.39155 13.078805,41.44928 -4.488045,-0.0103 -8.982982,0.083 -13.466235,-0.18768 z m -32.145328,-2.71061 c -21.343057,-5.29462 -69.400614,-0.92832 -45.227884,-34.13653 8.07537,-11.65424 8.85979,-47.023166 28.406444,-27.226721 17.576055,7.551441 39.790008,12.982961 27.474476,37.497771 -3.953524,8.07323 6.477886,31.33257 -10.653036,23.86548 z m -68.271344,-33.6926 c -10.15834,-24.0157 -18.172,-49.230357 -20.59402,-75.298605 9.79863,13.073308 34.79515,19.504313 38.99209,32.891221 -6.92477,13.764996 -11.68187,28.538654 -18.39807,42.407384 z m 79.302762,-37.289305 c -20.336442,-7.489654 -41.362712,-17.285214 -18.641477,-37.94549 8.65756,-33.400488 18.058662,38.072001 18.641477,37.94549 z m -51.316802,-28.02369 c -16.17824,-13.525849 -61.34264,-29.902038 -28.54782,-49.748634 15.09759,-23.014616 33.36671,-26.325279 44.5942,0.250652 20.725423,12.404643 -7.61981,38.375188 -16.04638,49.497982 z m 36.730795,-61.5832 c -11.750245,-12.516373 -30.226865,-29.507826 -4.338023,-37.302585 25.405804,-27.012112 3.923711,37.6097959 4.338023,37.302585 z m -87.998125,-6.1994 c 1.68662,-23.200414 5.73511,-46.265267 12.51752,-68.52461 9.7834,22.640133 37.07146,46.937387 2.62229,61.44713 -4.85493,1.564065 -18.91449,25.16601 -15.13981,7.07748 z m 52.53018,-42.89771 c -3.51836,-17.224714 -41.73916,-52.355285 -14.92817,-59.218225 21.43259,-6.23781 56.94602,-24.36871 52.822415,12.658825 17.256287,27.224336 -21.505676,42.73231 -37.894245,46.5594 z m 64.057342,-46.031 c -10.056065,-23.141965 -4.050767,-37.778945 23.41843,-31.592305 15.749905,1.25361 -20.768691,24.44499 -21.49391,36.444705 l -1.029183,-0.841562 z m -75.193992,-42.322305 c 11.29919,-19.52808 25.808614,-36.96457 41.470096,-53.16 0.101506,14.55317 0.203013,29.10633 0.304519,43.6595 -13.598179,3.69945 -28.130475,7.16219 -41.774615,9.5005 z m 67.659392,-15.2145 c 2.366974,-14.95708 -6.41241,-43.66711 4.22005,-51.7147 24.761928,4.08503 65.212311,4.1706 41.817951,38.27736 2.944263,19.83983 -36.40636,15.42129 -46.038001,13.43734 z m 72.15439,-2.9588 c 1.902226,-25.69631 14.740779,-35.66941 36.33583,-17.2633 -11.854746,5.06959 -26.011967,13.51822 -36.33583,17.2633 z m 50.94893,-41.8883 c -18.998309,-6.77912 -41.809104,-14.24729 -21.72228,-35.5967 4.444718,-21.00831 17.592066,-30.77858 32.38606,-11.2867 14.736229,8.63854 28.691158,19.36811 8.784229,31.49926 -6.331064,3.78523 -10.838038,21.3322 -19.448009,15.38414 z m -61.2177195,-23.2677 c -15.0603635,-5.53438 -55.3957785,-6.94352 -21.3910875,-19.4788 11.251297,-4.84014 53.16488,-31.2298 34.471313,-3.62985 -5.094727,5.91065 -5.879593,21.32835 -13.0802255,23.10865 z"
       style="fill:#333333;fill-opacity:1;stroke-width:0.789911"
       id="path906" />
  </g>
</svg>
