<svg width="99" height="99" viewBox="0 0 99 99" fill="none" xmlns="http://www.w3.org/2000/svg">
<g clip-path="url(#clip0)">
<path d="M51.6136 54.5117C51.7899 51.2075 53.4173 48.2901 55.8489 46.2297C58.4171 44.1049 61.6517 42.9526 64.9848 42.9751C68.4838 42.9751 71.7044 44.2157 74.1052 46.2297C76.5399 48.2932 78.1487 51.2075 78.3405 54.5117C78.5169 57.8931 77.1649 61.0549 74.7641 63.3876C72.1324 65.9014 68.6241 67.2899 64.9848 67.2579C61.335 67.2919 57.8154 65.9038 55.1714 63.3876C52.7861 61.0519 51.4187 57.8931 51.6105 54.5117H51.6136ZM30.3286 61.1818C30.341 62.4719 30.7617 64.984 31.3712 66.9485C32.7064 71.1701 34.9505 75.0477 37.9454 78.3088C41.1532 81.8384 45.0668 84.6547 49.4325 86.5753C54.1906 88.6665 59.3358 89.7322 64.5331 89.7031C69.7325 89.7189 74.8769 88.6384 79.6306 86.532C83.9929 84.59 87.9044 81.7635 91.1177 78.2314C94.1008 74.9513 96.3383 71.0642 97.6765 66.8372C98.9655 62.7406 99.3176 58.4068 98.7067 54.1559C98.1306 50.0848 96.7022 46.1811 94.5146 42.6997C92.4986 39.4522 89.9106 36.5969 86.8762 34.2723L55.8768 10.4536C53.8473 8.89122 50.4318 8.90669 48.2074 10.4536C45.952 12.0345 45.6922 14.6456 47.6876 16.3038L60.5824 26.7948L21.2175 26.8443C17.9598 26.8443 14.8537 28.9697 14.2225 31.6798C13.5945 34.4178 15.7849 36.6917 19.1694 36.704L39.1025 36.6762L3.39751 64.0652C0.0469757 66.6268 -1.03274 70.9116 1.08029 73.6063C3.22116 76.3628 7.78444 76.3628 11.1814 73.6218L30.5823 57.7477C30.5823 57.7477 30.2946 59.8917 30.3255 61.1787L30.3286 61.1818ZM80.1937 68.35C76.1842 72.4307 70.5907 74.7479 64.5362 74.7479C58.4755 74.7634 52.8666 72.474 48.8725 68.415C46.9835 66.5129 45.5264 64.2264 44.6001 61.7108C43.7524 59.3468 43.4178 56.8294 43.6184 54.3261C43.8189 51.8227 44.5501 49.3907 45.7633 47.1918C46.9745 45.0226 48.5872 43.1034 50.5153 41.5365C54.4011 38.3808 59.348 36.6731 64.5362 36.6576C69.7059 36.6576 74.6559 38.3499 78.5354 41.5055C80.4724 43.0585 82.0867 44.9756 83.2874 47.1485C84.4971 49.3049 85.2396 51.7056 85.45 54.1899C85.6745 56.7181 85.3396 59.2647 84.4692 61.6489C83.5367 64.1614 82.0803 66.4467 80.1968 68.3531L80.1937 68.35Z" fill="#333333"/>
</g>
<defs>
<clipPath id="clip0">
<rect width="99" height="99" fill="white"/>
</clipPath>
</defs>
</svg>
