<svg width="624" height="559" viewBox="0 0 624 559" fill="none" xmlns="http://www.w3.org/2000/svg">
<path fill-rule="evenodd" clip-rule="evenodd" d="M294.701 37.6611C352.31 22.0861 410.675 -13.7437 467.14 5.58108C525.609 25.5918 564.851 82.703 590.62 138.938C616.415 195.231 639.137 264.594 611.135 319.819C582.952 375.402 497.506 368.1 452.555 411.226C414.186 448.037 421.649 522.012 374.603 546.748C327.416 571.558 267.907 554.191 218.444 534.318C171.676 515.529 137.068 477.765 105.336 438.567C74.4938 400.47 52.8668 357.921 37.8505 311.24C20.2403 256.496 -18.8247 193.722 10.7048 144.391C40.9686 93.8323 118.143 105.747 173.255 85.035C214.771 69.4328 251.89 49.2351 294.701 37.6611Z" fill="#F1F1F1"/>
</svg>
