<svg width="763" height="763" viewBox="0 0 763 763" fill="none" xmlns="http://www.w3.org/2000/svg">
<path fill-rule="evenodd" clip-rule="evenodd" d="M686.247 105.03H444.71V48.1152L47.6875 109.394V646.522L444.71 714.906V630.546H686.247C693.562 630.917 700.726 628.376 706.173 623.479C711.62 618.582 714.906 611.727 715.312 604.414V131.139C714.9 123.83 711.611 116.982 706.165 112.089C700.719 107.197 693.558 104.66 686.247 105.03ZM690.062 608.753H443.899L443.494 563.712H502.793V511.256H443.041L442.755 480.259H502.793V427.803H442.302L442.015 396.806H502.793V344.35H441.825V313.353H502.793V260.897H441.825V229.9H502.793V177.444H441.825V129.756H690.062V608.753Z" fill="#333333"/>
<path d="M536.174 177.373H639.251V229.829H536.174V177.373Z" fill="#333333"/>
<path d="M536.174 260.85H639.251V313.306H536.174V260.85Z" fill="#333333"/>
<path d="M536.174 344.328H639.251V396.784H536.174V344.328Z" fill="#333333"/>
<path d="M536.174 427.805H639.251V480.261H536.174V427.805Z" fill="#333333"/>
<path d="M536.174 511.281H639.251V563.737H536.174V511.281Z" fill="#333333"/>
<path fill-rule="evenodd" clip-rule="evenodd" d="M151.337 254.485L202.505 251.552L234.671 339.989L272.678 247.904L323.846 244.971L261.709 370.532L323.846 496.404L269.745 492.756L233.216 396.808L196.664 489.107L146.949 484.72L204.699 373.537L151.337 254.485Z" fill="white"/>
</svg>
