<svg width="99" height="148" viewBox="0 0 99 148" fill="none" xmlns="http://www.w3.org/2000/svg">
<path d="M24.755 148C38.4143 148 49.5 136.949 49.5 123.333V98.6666H24.755C11.0957 98.6666 0.00994873 109.717 0.00994873 123.333C0.00994873 136.949 11.0957 148 24.755 148Z" fill="#444444"/>
<path d="M0.00994873 73.9999C0.00994873 60.3839 11.0957 49.3333 24.755 49.3333H49.5V98.6666H24.755C11.0957 98.6666 0.00994873 87.6159 0.00994873 73.9999Z" fill="#333333"/>
<path d="M0.0115967 24.6667C0.0115967 11.0507 11.0974 0 24.7566 0H49.5017V49.3333H24.7566C11.0974 49.3333 0.0115967 38.2827 0.0115967 24.6667Z" fill="#222222"/>
<path d="M49.5 0H74.245C87.9043 0 98.9901 11.0507 98.9901 24.6667C98.9901 38.2827 87.9043 49.3333 74.245 49.3333H49.5V0Z" fill="#111111"/>
<path d="M98.9901 73.9999C98.9901 87.6159 87.9043 98.6666 74.245 98.6666C60.5858 98.6666 49.5 87.6159 49.5 73.9999C49.5 60.3839 60.5858 49.3333 74.245 49.3333C87.9043 49.3333 98.9901 60.3839 98.9901 73.9999Z" fill="black"/>
</svg>
