<svg width="99" height="99" viewBox="0 0 99 99" fill="none" xmlns="http://www.w3.org/2000/svg">
<g clip-path="url(#clip0)">
<path d="M81.8729 6.74811C81.4357 6.68211 80.9324 7.18948 80.5364 8.38573C79.8888 10.3245 76.1103 21.5981 57.8324 26.2305C60.2909 28.3425 61.8584 31.3537 61.8584 34.7239C61.8584 41.1052 56.3144 46.2739 49.4834 46.2739C42.6566 46.2739 37.1208 41.1011 37.1167 34.7239C37.1167 32.2365 37.9747 29.9471 39.4061 28.0579C26.4742 26.7296 20.8848 15.1755 20.8848 15.1755L20.4888 32.3479C20.3857 34.6744 20.4517 36.9307 19.3751 39.0964C19.3072 38.9967 19.2385 38.8977 19.1688 38.7994C17.6516 36.6881 15.7424 34.9267 13.6624 33.7191C11.5824 32.5116 9.41687 31.9074 7.41668 31.9766C5.84121 32.031 4.41361 32.5017 3.23806 33.3544C1.14203 34.871 -0.0228785 37.5027 -0.000444828 40.6705C0.0219888 43.8382 1.22993 47.2827 3.35768 50.2462C5.1199 52.6989 7.40391 54.6699 9.85733 55.8553C12.3107 57.0406 14.7972 57.3743 16.9331 56.805C29.2957 65.9625 51.9213 73.9155 67.3859 64.5806L59.0328 57.861C54.6438 59.2841 48.2913 59.2635 40.8952 56.6441C52.8577 59.0449 59.3339 56.4255 62.8979 53.6659C61.9574 52.4449 59.9692 51.4961 59.9692 51.4961C59.9692 51.4961 62.2916 51.9375 63.8054 53.5421C64.4118 54.1815 64.6222 55.1385 64.7047 56.2357C66.9858 57.465 69.5846 58.9417 72.4391 60.6165C80.9366 52.119 85.8577 36.1429 82.8341 8.57136C82.6897 7.46173 82.3102 6.81823 81.8729 6.74811ZM28.2768 29.2706C32.6122 29.2665 36.1267 32.55 36.1267 36.6007C36.1267 40.6432 32.6081 43.9267 28.2768 43.9226C23.9456 43.9226 20.4393 40.6432 20.4393 36.6007C20.4393 32.5541 23.9456 29.2706 28.2768 29.2665V29.2706ZM52.1028 31.2589C51.3851 31.2583 50.6742 31.3992 50.0109 31.6733C49.3476 31.9475 48.7447 32.3496 48.2368 32.8568C47.7289 33.3639 47.3259 33.9662 47.0507 34.6291C46.7755 35.292 46.6336 36.0026 46.6331 36.7204C46.6325 37.4381 46.7734 38.149 47.0475 38.8123C47.3217 39.4756 47.7238 40.0784 48.231 40.5863C48.7381 41.0943 49.3404 41.4973 50.0033 41.7725C50.6662 42.0477 51.3768 42.1896 52.0946 42.1901C53.5441 42.1912 54.9348 41.6164 55.9606 40.5922C56.9863 39.5679 57.5632 38.1782 57.5643 36.7286C57.5654 35.279 56.9906 33.8884 55.9664 32.8626C54.9422 31.8368 53.5524 31.26 52.1028 31.2589ZM6.96706 33.8947C6.96981 33.8947 6.97256 33.8947 6.97531 33.8947C7.00418 33.8944 7.03306 33.8944 7.06193 33.8947C7.58519 33.8942 8.10341 33.9951 8.58688 34.1917C9.07036 34.3883 9.50958 34.6767 9.87938 35.0404C10.2492 35.404 10.5423 35.8358 10.7419 36.311C10.9415 36.7861 11.0437 37.2953 11.0426 37.8094C11.0426 38.3227 10.9396 38.831 10.7395 39.3052C10.5394 39.7794 10.2461 40.2102 9.87641 40.573C9.50672 40.9358 9.06787 41.2235 8.58494 41.4195C8.10201 41.6156 7.58448 41.7163 7.06193 41.7157C6.00873 41.7136 4.99941 41.3011 4.25545 40.5687C3.5115 39.8364 3.09368 38.844 3.09368 37.8094C3.09007 36.7878 3.49394 35.8055 4.21875 35.073C4.94355 34.3405 5.93162 33.916 6.97118 33.8906L6.96706 33.8947ZM29.8979 34.4021C29.4429 34.4075 28.9934 34.5025 28.5751 34.6817C28.1568 34.8608 27.7778 35.1206 27.4599 35.4462C27.142 35.7717 26.8913 36.1568 26.7222 36.5792C26.553 37.0017 26.4688 37.4533 26.4742 37.9084C26.4796 38.3634 26.5746 38.8129 26.7537 39.2312C26.9329 39.6495 27.1926 40.0285 27.5182 40.3464C27.8438 40.6643 28.2288 40.915 28.6513 41.0841C29.0738 41.2533 29.5254 41.3375 29.9804 41.3321C30.8994 41.3212 31.7764 40.9456 32.4185 40.2881C33.0606 39.6305 33.4151 38.7448 33.4042 37.8259C33.3932 36.9069 33.0177 36.0299 32.3601 35.3878C31.7026 34.7457 30.8169 34.3912 29.8979 34.4021ZM63.9704 54.8786C63.7931 55.0972 63.5456 55.287 63.3269 55.485L64.1932 55.9594C64.1231 55.5469 64.0571 55.0931 63.9704 54.8786ZM61.7017 55.2911L58.6781 56.7802L58.9256 56.9865L59.7423 57.6341L67.9676 64.2589L68.0294 64.3084C70.6819 66.4292 73.3662 68.5098 76.0814 70.5495C76.0499 70.7222 76.0389 70.898 76.0484 71.0734L77.1209 70.9084L77.5458 71.5354L87.1034 77.6074C86.6084 79.2986 86.8353 81.5385 87.9573 83.6175C91.2161 89.6606 98.9999 92.2552 98.9999 92.2552C95.8196 84.1372 98.1378 77.5331 91.8637 75.2066C90.8654 74.8354 89.9951 74.823 89.2691 75.0705L80.8252 67.2536L80.1074 67.0391L80.0043 65.9584C79.8331 66.0262 79.6676 66.1076 79.5093 66.2017C78.2471 65.1292 76.6754 63.9866 75.0131 62.8399C69.3866 59.3955 65.7029 57.4774 61.6976 55.2911H61.7017Z" fill="#333333"/>
</g>
<defs>
<clipPath id="clip0">
<rect width="99" height="99" fill="white"/>
</clipPath>
</defs>
</svg>
