<?xml version="1.0" encoding="UTF-8" standalone="no"?>
<svg
   xmlns:dc="http://purl.org/dc/elements/1.1/"
   xmlns:cc="http://creativecommons.org/ns#"
   xmlns:rdf="http://www.w3.org/1999/02/22-rdf-syntax-ns#"
   xmlns:svg="http://www.w3.org/2000/svg"
   xmlns="http://www.w3.org/2000/svg"
   xmlns:sodipodi="http://sodipodi.sourceforge.net/DTD/sodipodi-0.dtd"
   xmlns:inkscape="http://www.inkscape.org/namespaces/inkscape"
   sodipodi:docname="google-trend.svg"
   inkscape:version="1.0 (4035a4fb49, 2020-05-01)"
   id="svg1463"
   version="1.1"
   viewBox="0 0 582.48193 577.19287"
   height="577.19287mm"
   width="582.48193mm">
  <defs
     id="defs1457" />
  <sodipodi:namedview
     inkscape:window-maximized="0"
     inkscape:window-y="0"
     inkscape:window-x="224"
     inkscape:window-height="1055"
     inkscape:window-width="1424"
     fit-margin-bottom="0"
     fit-margin-right="0"
     fit-margin-left="0"
     fit-margin-top="0"
     showgrid="false"
     inkscape:document-rotation="0"
     inkscape:current-layer="layer1"
     inkscape:document-units="mm"
     inkscape:cy="1134.7607"
     inkscape:cx="932.82736"
     inkscape:zoom="0.12374369"
     inkscape:pageshadow="2"
     inkscape:pageopacity="0.0"
     borderopacity="1.0"
     bordercolor="#666666"
     pagecolor="#ffffff"
     id="base" />
  <metadata
     id="metadata1460">
    <rdf:RDF>
      <cc:Work
         rdf:about="">
        <dc:format>image/svg+xml</dc:format>
        <dc:type
           rdf:resource="http://purl.org/dc/dcmitype/StillImage" />
        <dc:title></dc:title>
      </cc:Work>
    </rdf:RDF>
  </metadata>
  <g
     transform="translate(-214.58956,684.77375)"
     id="layer1"
     inkscape:groupmode="layer"
     inkscape:label="Layer 1">
    <path
       d="m 419.42435,-108.11352 c -60.58237,-0.67207 -121.16473,-1.34414 -181.7471,-2.01621 -7.28702,-9.32442 -17.66787,-17.49778 -23.08769,-27.51633 0.79521,-47.04642 1.59048,-94.09285 2.38579,-141.13927 7.906,-6.731 14.43307,-16.67983 23.13978,-21.54093 53.08541,-1.28041 106.17081,-2.56087 159.25622,-3.84137 1.40089,-52.95874 -0.55287,-106.10113 3.91461,-158.90555 -0.12981,-32.85199 34.95364,-42.13733 61.6804,-40.50614 44.69032,-0.82873 89.39648,-0.26492 134.094,-0.44842 1.1986,131.89202 -0.49005,263.7818 -1.0594,395.6724 -59.51483,1.17384 -119.06497,0.80863 -178.57661,0.24182 z"
       style="fill:#333333;fill-opacity:1;stroke-width:3.88075"
       id="path888" />
    <path
       d="m 596.18256,-381.74963 c 1.19999,-91.5132 0.87476,-183.1042 5.34923,-274.53003 8.08817,-32.65292 48.40207,-27.77185 74.65578,-28.31968 30.6802,1.10618 62.07267,-2.77897 92.27263,3.63194 29.77356,12.37647 25.1086,47.86078 26.13397,74.05 2.68398,150.45695 4.03629,301.03794 -0.43021,451.46794 1.16439,20.17769 -14.25741,38.08147 -30.53796,47.09413 -56.58639,0 -113.17277,0 -169.75915,0 0.7719,-91.13143 1.54381,-182.26287 2.31571,-273.3943 z"
       style="opacity:0.998;fill:#222222;fill-opacity:1;stroke-width:3.88075"
       id="path886" />
  </g>
</svg>
