<?xml version="1.0" encoding="UTF-8" standalone="no"?>
<svg
   xmlns:dc="http://purl.org/dc/elements/1.1/"
   xmlns:cc="http://creativecommons.org/ns#"
   xmlns:rdf="http://www.w3.org/1999/02/22-rdf-syntax-ns#"
   xmlns:svg="http://www.w3.org/2000/svg"
   xmlns="http://www.w3.org/2000/svg"
   xmlns:sodipodi="http://sodipodi.sourceforge.net/DTD/sodipodi-0.dtd"
   xmlns:inkscape="http://www.inkscape.org/namespaces/inkscape"
   sodipodi:docname="heading-image.svg"
   width="194.18008mm"
   height="111.78941mm"
   viewBox="0 0 194.18008 111.78941"
   version="1.1"
   id="svg8"
   inkscape:version="1.0 (4035a4fb49, 2020-05-01)">
  <defs
     id="defs2" />
  <sodipodi:namedview
     id="base"
     pagecolor="#ffffff"
     bordercolor="#666666"
     borderopacity="1.0"
     inkscape:pageopacity="0.0"
     inkscape:pageshadow="2"
     inkscape:zoom="0.64"
     inkscape:cx="307.86614"
     inkscape:cy="183.77369"
     inkscape:document-units="mm"
     inkscape:current-layer="g1009"
     inkscape:document-rotation="0"
     showgrid="false"
     inkscape:window-width="1424"
     inkscape:window-height="1033"
     inkscape:window-x="288"
     inkscape:window-y="0"
     inkscape:window-maximized="0"
     fit-margin-top="0"
     fit-margin-left="0"
     fit-margin-right="0"
     fit-margin-bottom="0" />
  <metadata
     id="metadata5">
    <rdf:RDF>
      <cc:Work
         rdf:about="">
        <dc:format>image/svg+xml</dc:format>
        <dc:type
           rdf:resource="http://purl.org/dc/dcmitype/StillImage" />
        <dc:title />
      </cc:Work>
    </rdf:RDF>
  </metadata>
  <g
     inkscape:label="Layer 1"
     inkscape:groupmode="layer"
     id="layer1"
     transform="translate(-6.0540115,-68.140207)">
    <g
       style="fill:none"
       id="g941"
       transform="matrix(0.19546569,0,0,0.19728378,46.544203,68.140202)">
      <path
         id="path930"
         fill="#f1f1f1"
         d="M 294.701,37.6611 C 352.31,22.0861 410.675,-13.7437 467.14,5.58108 525.609,25.5918 564.851,82.703 590.62,138.938 c 25.795,56.293 48.517,125.656 20.515,180.881 -28.183,55.583 -113.629,48.281 -158.58,91.407 -38.369,36.811 -30.906,110.786 -77.952,135.522 -47.187,24.81 -106.696,7.443 -156.159,-12.43 C 171.676,515.529 137.068,477.765 105.336,438.567 74.4938,400.47 52.8668,357.921 37.8505,311.24 20.2403,256.496 -18.8247,193.722 10.7048,144.391 40.9686,93.8323 118.143,105.747 173.255,85.035 214.771,69.4328 251.89,49.2351 294.701,37.6611 Z"
         clip-rule="evenodd"
         fill-rule="evenodd" />
    </g>
    <g
       id="g963"
       transform="matrix(-0.19430932,0.05206503,-0.05104207,-0.19049161,467.06359,25.876537)">
      <g
         id="g989"
         transform="translate(705.89993,-1116.0312)">
        <g
           id="g1009"
           transform="translate(16.933333,685.8)"
           inkscape:export-xdpi="96"
           inkscape:export-ydpi="96">
          <path
             d="m 876.61228,640.15458 c -33.02731,-5.92671 -32.51888,-47.80309 -31.65145,-73.89616 6.78875,-104.39434 44.39955,-203.34263 66.82123,-304.88454 10.53709,-53.99923 29.73378,-109.86791 18.47417,-165.056851 -6.43438,-23.087899 -35.55838,-13.352496 -48.65326,-1.316839 -44.59453,34.46614 -83.49016,76.94671 -114.52715,123.99272 -30.28455,49.54862 -52.11813,106.55719 -97.05184,145.38243 1.63022,-24.66547 16.75635,-47.43169 27.25315,-69.79868 40.83885,-74.71377 89.06462,-147.70813 155.15305,-202.346942 21.6401,-17.189017 56.62927,-35.088951 80.90476,-13.153189 20.03972,20.610699 29.85361,52.165671 27.56926,80.414441 -25.14368,129.97193 -58.93626,258.63641 -73.95468,390.31456 -5.6548,23.81609 0.557,83.6387 33.47093,49.08836 50.8739,-54.03942 86.17425,-120.26723 124.48965,-183.29746 24.6168,-42.39739 48.4406,-85.19844 71.9371,-128.24513 26.5485,-34.61279 61.4501,-70.67301 107.2375,-75.19355 36.2376,0.26825 50.4513,45.17333 43.4676,75.03077 -10.8939,102.98387 -51.2488,201.99228 -50.7271,306.22206 69.1914,-68.94744 114.6402,-158.48365 189.0125,-222.79848 20.8425,-19.14864 58.7462,-28.9697 77.5817,-2.45533 31.0447,41.36964 35.5614,95.4697 45.6086,144.57387 32.6612,-18.64386 47.8779,-64.9558 88.4198,-69.69581 25.6793,-2.14352 30.9524,23.53812 8.0986,32.82278 -29.9491,14.15274 -44.2524,47.44144 -74.9457,60.68813 -24.1873,16.83514 -59.6594,-2.0863 -60.7573,-30.71535 -8.2557,-38.85202 -7.2742,-82.61718 -28.9999,-117.03024 -24.5669,-13.68903 -42.6012,22.69977 -58.6624,36.8802 -38.8011,45.20284 -78.4823,89.9417 -114.5343,137.66919 -13.707,16.05584 -25.9965,33.58942 -40.7757,48.40614 -22.0484,10.13105 -59.6038,16.93227 -70.3115,-11.62225 -14.4901,-53.00143 6.8133,-107.35396 19.5861,-158.75604 15.3701,-58.01874 40.2431,-114.51055 44.2984,-174.83756 2.4581,-29.95569 -36.071,-39.40352 -52.6912,-16.81586 -47.0268,46.70944 -75.6713,108.16633 -107.051,165.87126 -23.4013,39.37913 -36.5068,84.4946 -65.8653,120.26008 -32.68662,41.81794 -69.878,84.89751 -121.21967,103.24503 -5.53451,1.40789 -11.33543,1.83159 -17.00465,1.05424 z"
             style="fill:#333333;fill-opacity:1;stroke-width:0.530789"
             id="path1011" />
        </g>
      </g>
      <g
         id="g983"
         transform="translate(128.5119,535.21429)" />
    </g>
  </g>
</svg>
