<svg width="97" height="99" viewBox="0 0 97 99" fill="none" xmlns="http://www.w3.org/2000/svg">
<path d="M80.8846 75.923C80.8846 77.7782 94.9981 78.8384 94.2189 75.4813C93.0933 69.8273 82.4432 70.2689 80.8846 75.923ZM20.7069 85.7292C23.9105 88.5561 28.7594 85.1108 30.318 81.1353C27.201 76.9831 15.6849 81.4002 20.7071 85.7292H20.7069ZM79.1528 79.8102C75.1699 83.5206 79.8456 87.4077 83.7419 84.8457C84.7809 84.139 83.6554 80.6935 79.1528 79.8102ZM67.9832 66.5585C76.4688 60.4627 107.64 57.3707 93.2665 42.7057L56.294 4.09923C51.7048 -0.318069 44.172 -0.318069 39.929 4.09923L4.25573 41.3805C-9.2519 55.1621 13.0009 54.0136 21.0534 59.226C24.7767 61.6996 9.10459 64.88 12.3082 68.1487C15.4253 71.4175 31.0975 74.4213 34.2147 77.6015C37.3318 80.8702 27.8938 84.3157 31.0111 87.5844C34.0414 90.8532 41.3147 87.7612 42.6135 95.1821C43.5659 100.659 55.9478 97.9207 61.4893 93.2385C64.9529 90.2348 55.5149 90.2348 58.632 86.9659C66.4248 78.9268 73.3518 83.3439 76.2091 75.9231C77.7677 71.9477 64.4334 69.1206 67.9834 66.5585H67.9832ZM37.266 64.0627C34.9756 63.0102 31.1615 63.8838 29.2289 62.4355C28.0029 61.5167 29.9704 61.2605 33.3027 60.8171C38.1315 60.175 45.5849 62.6802 46.8524 63.3463C48.1198 64.0122 48.2786 64.42 48.2786 64.42C49.5223 69.4035 42.7638 66.5885 37.266 64.0627ZM61.7491 20.4427L60.3636 29.0124L54.5624 25.8317L45.1244 31.9273L42.0073 19.1174L36.9853 30.249L24.4302 30.1606C22.0058 30.1606 22.3521 27.5986 24.8631 25.0366C29.7984 19.4709 39.4097 10.0181 42.4402 6.74941C45.5573 3.48067 51.0122 3.56884 54.1295 6.74941L68.243 21.4146C69.5419 22.7396 69.5419 25.4784 68.7624 26.2733L61.7489 20.4427H61.7491Z" fill="#333333"/>
</svg>
