<svg width="683" height="683" viewBox="0 0 683 683" fill="none" xmlns="http://www.w3.org/2000/svg">
<path d="M341.5 683C530.105 683 683 530.105 683 341.5C683 152.895 530.105 0 341.5 0C152.895 0 0 152.895 0 341.5C0 530.105 152.895 683 341.5 683Z" fill="#333333"/>
<path d="M513.64 94.4022C509.471 88.8442 503.926 84.6878 496.978 83.2983H492.81C480.316 83.2983 469.212 91.6232 467.823 104.116V108.285L384.538 138.817C380.37 133.259 373.434 129.103 366.487 127.714C349.825 124.935 334.553 136.038 331.786 151.311C329.007 163.804 335.954 176.297 347.058 181.855L283.202 545.575C273.488 545.575 265.151 551.133 259.605 558.068L172.152 510.874V508.095C173.542 502.537 172.152 495.602 167.983 490.044C166.235 486.722 163.242 484.228 159.659 483.109L172.152 413.695C176.321 413.695 180.477 410.916 183.256 409.526L285.981 466.447L288.76 451.174L191.581 397.033V390.085L231.84 377.592L234.619 380.371C236.008 381.76 236.008 381.76 237.398 381.76L230.462 419.24L240.177 424.798L247.112 384.539C256.826 383.15 265.163 376.215 265.163 365.099C265.163 353.995 256.838 345.658 245.722 345.658C238.787 345.658 231.84 349.826 229.061 356.762L227.671 362.32V366.488L188.802 378.981C188.802 378.981 188.802 377.592 187.412 377.592C183.244 372.034 179.087 369.267 172.14 367.878H167.971C156.868 367.878 147.153 376.202 144.374 387.318C142.985 397.033 147.153 406.759 156.868 412.305L144.374 481.719C134.66 483.109 126.323 490.044 124.933 501.16C123.544 506.718 124.933 513.653 129.102 519.211C133.27 524.769 137.427 527.536 144.374 528.926C151.31 530.315 156.867 528.925 162.425 524.757L252.658 573.341C252.658 580.276 254.047 587.224 258.216 592.782C262.384 599.717 269.319 603.885 277.656 605.275H283.214C297.097 605.275 309.591 595.56 312.37 580.288V577.509L398.445 546.965C402.614 551.133 408.16 553.9 413.718 555.289H417.886C430.379 555.289 441.483 546.965 442.873 534.471C444.262 527.536 442.873 520.589 438.704 515.031C437.315 512.252 434.536 510.862 433.146 509.473L498.392 136.038C508.106 133.259 516.443 126.324 517.833 115.22C519.198 108.285 517.808 101.337 513.64 94.4022ZM245.71 358.163C249.879 358.163 252.645 360.942 252.645 365.099C252.645 369.255 249.866 372.034 245.71 372.034C241.542 372.034 238.775 369.255 238.775 365.099C240.164 360.942 242.931 358.163 245.71 358.163ZM297.073 577.497C295.683 585.822 287.359 591.38 280.411 589.99C276.243 589.99 273.476 587.211 270.697 584.432C269.307 581.653 267.918 580.264 267.918 577.497V574.718C267.918 573.328 269.307 571.939 269.307 570.55C272.086 566.381 276.243 563.614 281.801 563.614H284.58C287.359 563.614 290.138 566.393 292.904 567.783V569.172C294.294 570.562 294.294 571.951 294.294 571.951C297.073 571.951 297.073 574.73 297.073 577.497ZM478.939 131.882L413.693 503.927C402.59 505.316 394.253 513.641 391.486 524.745V527.524L305.41 558.068C304.02 555.289 301.241 553.9 299.852 551.133L365.097 184.647C371.134 183.999 376.767 181.305 381.06 177.012C385.353 172.719 388.047 167.086 388.695 161.049V156.881L471.991 126.336C474.77 129.103 476.16 130.493 478.939 131.882ZM363.708 170.752H358.15C356.76 170.752 353.981 169.362 352.592 167.973C348.423 165.194 345.657 159.648 345.657 152.7C347.046 144.375 353.981 138.817 362.318 140.207C365.097 140.207 369.254 142.986 370.643 145.765C373.422 148.544 374.812 152.7 373.422 156.869C373.434 165.194 369.266 169.362 363.708 170.752ZM402.577 526.134H405.356C406.746 521.966 409.525 519.199 413.681 517.809H417.85C420.629 517.809 422.018 519.199 424.785 521.978V523.367C426.174 526.146 427.564 528.925 426.174 531.692C424.785 537.25 419.239 541.407 413.681 540.017C410.902 540.017 409.513 538.628 408.123 537.238L406.734 535.849C405.344 534.459 405.344 533.07 405.344 530.291V527.512L402.577 526.134ZM481.706 108.285C483.095 102.727 487.264 98.5707 492.81 98.5707H494.199C495.589 98.5707 498.367 99.9602 499.757 101.35C502.536 104.129 503.926 108.285 503.926 111.064C503.926 115.232 501.147 117.999 496.99 119.389C495.601 119.389 492.822 120.778 491.432 119.389C488.653 119.389 485.874 116.61 484.497 115.22C481.706 113.831 481.706 111.064 481.706 108.285ZM156.868 506.706C155.478 509.485 154.089 512.264 151.31 513.641C149.92 515.031 148.531 515.031 145.752 513.641C142.973 513.641 141.583 512.251 140.194 509.473C138.804 508.083 138.804 505.304 138.804 503.914C138.804 501.135 141.583 498.357 145.739 496.979H148.518C149.908 496.979 151.297 496.979 151.297 498.369C152.687 498.369 152.687 499.758 154.076 501.148C155.478 502.537 156.868 503.927 156.868 506.706ZM159.647 390.085C161.036 385.917 163.815 383.15 167.971 383.15H169.361C172.14 383.15 173.529 384.539 174.919 387.318C176.308 388.708 176.308 391.487 176.308 392.876V394.266C176.308 397.045 173.529 398.434 172.14 399.824L170.75 401.213H166.582C165.192 401.213 163.803 401.213 163.803 399.824C159.647 397.033 158.257 392.864 159.647 390.085Z" fill="white"/>
</svg>
