<svg width="250" height="250" viewBox="0 0 250 250" fill="none" xmlns="http://www.w3.org/2000/svg">
<circle cx="125" cy="125" r="125" fill="black"/>
<path d="M73 108.5V47H76.6972H80.3944V105.536V164.072H89.2676H98.1408V141.242V118.412L121.896 89.0041C139.422 67.3075 146.596 59.4734 149.255 59.1275C151.237 58.8693 152.851 59.2031 152.842 59.8684C152.832 60.5339 142.185 74.2753 129.18 90.405L105.535 119.732V144.866V170H89.2676H73V108.5ZM125.6 151.569C113.523 135.836 111.451 132.326 111.451 127.597C111.451 122.169 111.77 122.483 127.146 143.064L142.841 164.072H153.766C159.774 164.072 164.69 163.798 164.69 163.462C164.69 163.126 157.013 152.671 147.63 140.227C132.324 119.929 130.803 117.371 132.831 115.338C135.542 112.622 133.183 110.057 156.534 141.102C166.957 154.958 176.132 167.129 176.923 168.148C178.058 169.609 174.282 170 159.056 170H139.75L125.6 151.569ZM86.3099 136.85V114.073L112.906 80.5364L139.502 47H158.751C169.338 47 178 47.3462 178 47.7688C178 48.1916 165.68 63.9507 150.621 82.7891C132.972 104.869 123.694 117.63 124.512 118.698C130.54 126.567 152.542 156.32 153.409 157.774C154.173 159.057 153.376 159.627 150.815 159.627C147.806 159.627 144.217 155.833 131.535 139.25C122.964 128.043 115.938 118.207 115.922 117.392C115.906 116.577 124.947 104.573 136.012 90.7168C147.077 76.8608 158.112 63.0234 160.535 59.9669L164.939 54.4097L153.353 54.4209L141.768 54.4321L116.996 85.6098L92.2253 116.788V138.207C92.2253 158.639 92.0889 159.627 89.2676 159.627C86.4382 159.627 86.3099 158.639 86.3099 136.851V136.85ZM86.3099 75.3564V47H95.9225H105.535V63.2186C105.535 78.3521 105.291 79.7153 101.885 83.595L98.2343 87.753L98.1874 71.0813C98.1432 55.4132 97.9626 54.4097 95.1829 54.4097C92.3651 54.4097 92.2251 55.3976 92.2251 75.2934C92.2251 93.9332 91.9073 96.582 89.2674 99.945L86.3096 103.713L86.3099 75.3564Z" fill="#C7AA8D"/>
<path d="M73 203.84H76.936V197.344L80.424 193.76L88.072 203.84H92.872L83.112 191.072L92.456 181.44H87.56L76.936 192.704V181.44H73V203.84Z" fill="white"/>
<path d="M96.2188 203.84H112.987V200.32H100.155V194.336H111.387V190.784H100.155V184.96H112.827V181.44H96.2188V203.84Z" fill="white"/>
<path d="M117.656 203.84H133.368V200.256H121.592V181.44H117.656V203.84Z" fill="white"/>
<path d="M135.518 203.84H139.549L141.854 198.432H152.446L154.717 203.84H158.878L149.021 181.28H145.374L135.518 203.84ZM143.294 194.944L147.133 185.984L151.006 194.944H143.294Z" fill="white"/>
<path d="M170.215 204.16C174.919 204.16 178.215 201.696 178.215 197.472V197.408C178.215 193.664 175.751 192.064 171.047 190.848C166.727 189.824 165.703 189.056 165.703 187.328V187.264C165.703 185.76 167.047 184.608 169.351 184.608C171.399 184.608 173.383 185.408 175.431 186.912L177.543 183.936C175.239 182.112 172.711 181.12 169.415 181.12C164.967 181.12 161.767 183.776 161.767 187.616V187.68C161.767 191.776 164.455 193.248 169.223 194.368C173.383 195.296 174.279 196.224 174.279 197.792V197.856C174.279 199.52 172.743 200.672 170.311 200.672C167.527 200.672 165.415 199.648 163.239 197.76L160.871 200.576C163.559 203.008 166.759 204.16 170.215 204.16Z" fill="white"/>
<path d="M178 182.12H179.33V180.74H178V182.12Z" fill="white"/>
<path d="M183.755 182.24C185.055 182.24 185.885 181.77 186.595 181L185.805 180.2C185.205 180.76 184.645 181.1 183.795 181.1C182.455 181.1 181.485 179.99 181.485 178.62V178.6C181.485 177.23 182.465 176.14 183.785 176.14C184.595 176.14 185.185 176.48 185.755 177L186.545 176.09C185.875 175.45 185.095 175 183.795 175C181.685 175 180.195 176.63 180.195 178.62V178.64C180.195 180.65 181.715 182.24 183.755 182.24Z" fill="white"/>
<path d="M191.042 182.24C193.192 182.24 194.712 180.58 194.712 178.62V178.6C194.712 176.63 193.212 175 191.062 175C188.912 175 187.392 176.66 187.392 178.62V178.64C187.392 180.61 188.892 182.24 191.042 182.24ZM191.062 181.1C189.662 181.1 188.682 179.98 188.682 178.62V178.6C188.682 177.24 189.652 176.14 191.042 176.14C192.442 176.14 193.422 177.26 193.422 178.62V178.64C193.422 180 192.452 181.1 191.062 181.1Z" fill="white"/>
<path d="M196.199 182.12H197.409V177.12L199.599 180.4H199.639L201.849 177.1V182.12H203.079V175.12H201.769L199.639 178.43L197.509 175.12H196.199V182.12Z" fill="white"/>
</svg>
