<svg width="24" height="24" viewBox="0 0 24 24" fill="none" xmlns="http://www.w3.org/2000/svg">
<rect width="24" height="24" rx="12" fill="#E6F5FF"/>
<path fill-rule="evenodd" clip-rule="evenodd" d="M16.7631 15.7375C15.7392 17.1777 14.0618 18.1167 12.1662 18.1167C9.04819 18.1167 6.52051 15.5763 6.52051 12.4428C6.52051 9.30917 9.04819 6.76892 12.1662 6.76892C14.0794 6.76892 15.7701 7.72517 16.7913 9.18797L12.8003 11.5036C12.6195 11.3801 12.4013 11.308 12.1662 11.308C11.5426 11.308 11.0371 11.816 11.0371 12.4428C11.0371 13.0694 11.5426 13.5775 12.1662 13.5775C12.3818 13.5775 12.5832 13.5168 12.7545 13.4116L16.7631 15.7375Z" fill="#004182"/>
<path d="M13.2955 12.4421C13.2955 12.6261 13.252 12.8 13.1747 12.9536L17.0879 15.2242C17.5491 14.4022 17.8121 13.4531 17.8121 12.4421C17.8121 11.4486 17.5581 10.5147 17.1116 9.70251L13.1956 11.9747C13.2598 12.1172 13.2955 12.2755 13.2955 12.4421Z" fill="#FF4B68"/>
<path d="M9.20591 20.1755C8.11776 19.5442 7.64759 18.0352 8.05126 16.7656L9.27147 17.4944L10.4917 18.2228C10.0179 18.5203 9.55828 19.0546 9.50094 20.0147C9.49769 20.0839 9.45777 20.1454 9.39745 20.179C9.33807 20.211 9.26568 20.2101 9.20591 20.1755Z" fill="#004182"/>
<path d="M15.1371 20.1755C16.2254 19.5442 16.6954 18.0352 16.2917 16.7656L15.0716 17.4944L13.8514 18.2228C14.3251 18.5203 14.7848 19.0546 14.8422 20.0147C14.8454 20.0839 14.8853 20.1454 14.9457 20.179C15.005 20.211 15.0774 20.2101 15.1371 20.1755Z" fill="#004182"/>
<path fill-rule="evenodd" clip-rule="evenodd" d="M13.2956 6.26954C13.2956 6.40384 13.2898 6.53541 13.2787 6.66331C12.9191 6.59111 12.5472 6.55323 12.1665 6.55323C11.7858 6.55323 11.4139 6.5911 11.0543 6.6633C11.0431 6.53541 11.0374 6.40384 11.0374 6.26954C11.0374 5.0161 11.5429 4 12.1665 4C12.7901 4 13.2956 5.0161 13.2956 6.26954ZM12.8401 4.79901C12.8724 4.92008 12.8497 5.03138 12.7895 5.0476C12.7293 5.06382 12.6543 4.97883 12.622 4.85775C12.5897 4.73668 12.6124 4.62538 12.6726 4.60916C12.7329 4.59294 12.8078 4.67794 12.8401 4.79901ZM11.5435 5.04761C11.6037 5.06382 11.6787 4.97883 11.711 4.85776C11.7432 4.73668 11.7206 4.62539 11.6604 4.60916C11.6001 4.59295 11.5251 4.67795 11.4929 4.79901C11.4606 4.92009 11.4832 5.03139 11.5435 5.04761Z" fill="#004182"/>
<path d="M19.7218 11.7708C19.8932 12.0948 20.3331 12.1586 20.4779 11.8219C20.5153 11.7349 20.5475 11.6444 20.574 11.5506C20.6724 11.2029 20.6927 10.8175 20.634 10.4167C20.5751 10.0158 20.4383 9.60724 20.2312 9.21427C20.024 8.82132 19.7508 8.45169 19.4269 8.12647C19.103 7.80126 18.7349 7.52683 18.3435 7.31886C17.9521 7.11091 17.5453 6.97347 17.146 6.91442C16.7468 6.85536 16.363 6.87584 16.0167 6.97469C15.9244 7.00105 15.8352 7.03283 15.7494 7.06985C15.413 7.21517 15.4775 7.65813 15.8013 7.82993C16.4842 8.19225 17.5249 8.79763 18.136 9.41149C18.7458 10.0241 19.3569 11.0808 19.7218 11.7708Z" fill="#004182"/>
<path d="M4.61163 11.7708C4.44027 12.0948 4.00036 12.1586 3.85548 11.8219C3.81807 11.7349 3.78601 11.6444 3.75947 11.5506C3.66102 11.2029 3.64062 10.8175 3.69944 10.4167C3.75825 10.0158 3.89513 9.60724 4.10223 9.21427C4.30934 8.82132 4.58264 8.45169 4.90653 8.12647C5.23042 7.80126 5.59853 7.52683 5.98987 7.31886C6.38123 7.11091 6.78813 6.97347 7.18736 6.91442C7.58659 6.85536 7.97033 6.87584 8.31663 6.97469C8.40899 7.00105 8.49814 7.03283 8.58387 7.06985C8.92031 7.21517 8.85591 7.65813 8.53205 7.82993C7.8491 8.19225 6.80843 8.79763 6.19738 9.41149C5.58754 10.0241 4.97656 11.0808 4.61163 11.7708Z" fill="#004182"/>
</svg>
