<?xml version="1.0" encoding="UTF-8" standalone="no"?>
<svg
   xmlns:dc="http://purl.org/dc/elements/1.1/"
   xmlns:cc="http://creativecommons.org/ns#"
   xmlns:rdf="http://www.w3.org/1999/02/22-rdf-syntax-ns#"
   xmlns:svg="http://www.w3.org/2000/svg"
   xmlns="http://www.w3.org/2000/svg"
   xmlns:sodipodi="http://sodipodi.sourceforge.net/DTD/sodipodi-0.dtd"
   xmlns:inkscape="http://www.inkscape.org/namespaces/inkscape"
   sodipodi:docname="pj.svg"
   inkscape:version="1.0 (4035a4fb49, 2020-05-01)"
   id="svg877"
   version="1.1"
   viewBox="0 0 562.6051 529.10425"
   height="529.10425mm"
   width="562.6051mm">
  <defs
     id="defs871" />
  <sodipodi:namedview
     fit-margin-bottom="0"
     fit-margin-right="0"
     fit-margin-left="0"
     fit-margin-top="0"
     inkscape:window-maximized="0"
     inkscape:window-y="0"
     inkscape:window-x="160"
     inkscape:window-height="1055"
     inkscape:window-width="1424"
     showgrid="false"
     inkscape:document-rotation="0"
     inkscape:current-layer="layer1"
     inkscape:document-units="mm"
     inkscape:cy="-180.9283"
     inkscape:cx="463.38505"
     inkscape:zoom="0.0875"
     inkscape:pageshadow="2"
     inkscape:pageopacity="0.0"
     borderopacity="1.0"
     bordercolor="#666666"
     pagecolor="#ffffff"
     id="base" />
  <metadata
     id="metadata874">
    <rdf:RDF>
      <cc:Work
         rdf:about="">
        <dc:format>image/svg+xml</dc:format>
        <dc:type
           rdf:resource="http://purl.org/dc/dcmitype/StillImage" />
        <dc:title></dc:title>
      </cc:Work>
    </rdf:RDF>
  </metadata>
  <g
     transform="translate(-313.5392,535.12946)"
     id="layer1"
     inkscape:groupmode="layer"
     inkscape:label="Layer 1">
    <path
       d="m 401.75798,-19.056335 c -28.73747,-18.654104 -60.44315,-32.578345 -88.21878,-52.641417 4.34588,-17.554267 43.26249,20.784897 50.37258,-11.571636 32.63965,-54.500262 62.29122,-110.678222 92.79748,-166.386612 30.71112,-54.66565 63.43329,-112.07154 116.87257,-147.61077 31.60811,-19.87147 73.11206,-33.72626 108.00297,-13.3994 34.85666,2.41679 40.17921,65.1423 0.0859,49.59307 -15.97683,-20.97878 -26.71531,-61.87166 -62.59725,-42.551 -47.86362,27.20662 -70.44382,80.81034 -97.78379,125.91402 -40.71608,71.84171 -79.51325,144.76705 -120.67194,216.366657 -22.39241,27.277708 23.78431,33.667216 29.24227,53.8968956 -7.36528,6.0805033 -20.20592,-9.1664696 -28.10205,-11.6098076 z M 588.74247,-242.04201 c -20.91913,-5.45226 -60.7057,-29.2204 -37.17916,-53.23898 32.71785,-22.26298 33.92603,33.44078 54.98407,42.16635 34.23442,9.28765 60.21961,-21.49361 78.82824,-45.41139 40.66383,-62.94061 76.66986,-128.89943 111.46597,-195.24396 4.91907,-20.3372 -35.09548,-25.69702 -33.3378,-41.35947 37.94648,19.66989 74.59432,41.94408 111.5968,63.34115 8.30755,21.30704 -35.51471,-19.20658 -41.82645,5.39858 -38.54334,60.18778 -66.05504,128.51446 -118.23075,179.00157 -30.34233,30.63577 -73.92599,55.91752 -118.3073,47.92102 l -3.69168,-1.12391 -4.30194,-1.45117 z"
       style="fill:#ffffff;fill-opacity:1;stroke-width:1.77312"
       id="path38" />
  </g>
</svg>
