<?xml version="1.0" encoding="UTF-8" standalone="no"?>
<svg
   xmlns:dc="http://purl.org/dc/elements/1.1/"
   xmlns:cc="http://creativecommons.org/ns#"
   xmlns:rdf="http://www.w3.org/1999/02/22-rdf-syntax-ns#"
   xmlns:svg="http://www.w3.org/2000/svg"
   xmlns="http://www.w3.org/2000/svg"
   xmlns:sodipodi="http://sodipodi.sourceforge.net/DTD/sodipodi-0.dtd"
   xmlns:inkscape="http://www.inkscape.org/namespaces/inkscape"
   sodipodi:docname="spss.svg"
   inkscape:version="1.0 (4035a4fb49, 2020-05-01)"
   id="svg2051"
   version="1.1"
   viewBox="0 0 609.95435 611.16888"
   height="611.16888mm"
   width="609.95435mm">
  <defs
     id="defs2045" />
  <sodipodi:namedview
     fit-margin-bottom="0"
     fit-margin-right="0"
     fit-margin-left="0"
     fit-margin-top="0"
     inkscape:window-maximized="0"
     inkscape:window-y="3"
     inkscape:window-x="100"
     inkscape:window-height="1033"
     inkscape:window-width="1424"
     showgrid="false"
     inkscape:document-rotation="0"
     inkscape:current-layer="layer1"
     inkscape:document-units="mm"
     inkscape:cy="2015.4925"
     inkscape:cx="398.102"
     inkscape:zoom="0.0875"
     inkscape:pageshadow="2"
     inkscape:pageopacity="0.0"
     borderopacity="1.0"
     bordercolor="#666666"
     pagecolor="#ffffff"
     id="base" />
  <metadata
     id="metadata2048">
    <rdf:RDF>
      <cc:Work
         rdf:about="">
        <dc:format>image/svg+xml</dc:format>
        <dc:type
           rdf:resource="http://purl.org/dc/dcmitype/StillImage" />
        <dc:title></dc:title>
      </cc:Work>
    </rdf:RDF>
  </metadata>
  <g
     transform="translate(232.45966,737.46318)"
     id="layer1"
     inkscape:groupmode="layer"
     inkscape:label="Layer 1">
    <path
       d="M 30.050782,-128.78728 C -85.27227,-144.36049 -186.771,-231.25423 -220.00141,-342.77091 c -24.96084,-86.35031 -12.5931,-184.00761 38.72187,-258.67734 48.70095,-73.65898 130.540341,-123.24113 218.054212,-133.59641 117.067118,-15.67512 239.870568,46.11663 298.585038,148.46891 70.85871,115.06765 50.64694,277.52678 -47.84864,370.50675 -61.09136,64.27161 -151.71328,95.75356 -239.548208,88.83589 -5.98433,-0.28923 -11.99136,-0.58035 -17.91208,-1.55417 z M 205.99574,-204.064 c 16.39196,-30.67135 -44.84073,-15.23912 -13.83709,4.35177 4.87395,2.96993 10.84296,-0.39476 13.83709,-4.35177 z m 39.23742,-37.80851 c 1.68158,-12.40392 -17.83751,-3.36544 -25.89315,-5.92112 -23.97242,0.27179 -47.94485,0.54362 -71.91727,0.81543 -6.2956,14.64432 7.4883,11.38664 17.68669,11.32559 26.70791,0 53.41582,0 80.12373,0 0,-2.0733 0,-4.1466 0,-6.2199 z m -40.30091,-19.67191 c 18.93942,-27.05143 -38.18889,-24.44158 -16.4542,0.005 4.69644,3.29988 12.01286,4.35243 16.4542,-0.005 z m -125.670968,-5.51529 c -1.14925,-20.42413 17.66082,-53.74058 3.61453,-66.7981 -7.20926,33.74722 -40.09389,41.66795 -70.414103,38.29282 -39.8741,0.33985 -79.750493,0.13573 -119.625709,0.19177 34.425913,-47.90023 70.102254,-94.89252 105.1200915,-142.36189 -31.2002365,-42.73418 -63.5341765,-84.60231 -94.6497015,-127.3882 46.050541,0 92.1010815,0 138.151622,0 21.09209,5.85696 20.99543,32.6383 33.78967,42.78958 -0.87134,-17.36419 3.90676,-47.88438 -6.96292,-59.26268 -70.9232635,0.51987 -141.923699,-1.31829 -212.784442,1.47226 0.01,18.63334 29.94478,44.1861 41.68473,64.84785 22.761797,30.7155 46.306172,60.8961 68.002181,92.3736 -35.397854,52.97522 -76.355951,102.14552 -112.304861,154.70659 18.18971,11.81585 56.640543,2.53165 81.981069,5.75512 47.832976,0.0289 95.665973,0.009 143.498953,0.0147 0.29963,-1.54447 0.59926,-3.08894 0.89889,-4.63341 z m 103.282038,-159.8653 c 13.88428,-4.31127 24.57384,-34.10343 26.8062,-6.8628 8.92746,27.72124 40.23151,-7.26594 22.45759,-15.39105 -6.63174,18.69915 -29.37938,-6.96522 -19.11888,-18.39737 5.34076,-18.74989 12.33684,-38.17671 13.36177,-57.28541 -18.34853,-7.32252 -23.25887,8.18077 -23.85227,23.45013 -0.75182,23.92982 -8.65313,-30.94837 -26.92396,-24.66088 -37.81662,-8.3888 -61.97269,37.74673 -50.64645,69.68023 5.99331,24.73164 34.14053,41.23992 57.916,29.46715 z m -27.75548,-10.68919 c -15.63557,-21.88854 -14.29328,-61.35722 6.60746,-79.78121 38.30557,-7.17058 39.64882,51.28258 25.60214,74.67797 -6.59079,11.50271 -22.69862,15.86869 -32.2096,5.10324 z"
       style="fill:#333333;fill-opacity:1;stroke-width:2.05916"
       id="path41" />
  </g>
</svg>
