<?xml version="1.0" encoding="UTF-8" standalone="no"?>
<svg
   xmlns:dc="http://purl.org/dc/elements/1.1/"
   xmlns:cc="http://creativecommons.org/ns#"
   xmlns:rdf="http://www.w3.org/1999/02/22-rdf-syntax-ns#"
   xmlns:svg="http://www.w3.org/2000/svg"
   xmlns="http://www.w3.org/2000/svg"
   xmlns:sodipodi="http://sodipodi.sourceforge.net/DTD/sodipodi-0.dtd"
   xmlns:inkscape="http://www.inkscape.org/namespaces/inkscape"
   width="970.01587mm"
   height="571.46564mm"
   viewBox="0 0 970.01587 571.46564"
   version="1.1"
   id="svg8"
   inkscape:export-filename="D:\personalWebsite\version 2\images\bitmap.png"
   inkscape:export-xdpi="96"
   inkscape:export-ydpi="96"
   inkscape:version="1.0 (4035a4fb49, 2020-05-01)"
   sodipodi:docname="squiggle.svg">
  <defs
     id="defs2" />
  <sodipodi:namedview
     fit-margin-bottom="0"
     fit-margin-right="0"
     fit-margin-left="0"
     fit-margin-top="0"
     inkscape:snap-nodes="false"
     inkscape:object-nodes="true"
     id="base"
     pagecolor="#ffffff"
     bordercolor="#666666"
     borderopacity="1.0"
     inkscape:pageopacity="0.0"
     inkscape:pageshadow="2"
     inkscape:zoom="0.15999999"
     inkscape:cx="1263.8766"
     inkscape:cy="831.1908"
     inkscape:document-units="mm"
     inkscape:current-layer="g1009"
     inkscape:document-rotation="0"
     showgrid="false"
     inkscape:window-width="1920"
     inkscape:window-height="1051"
     inkscape:window-x="-9"
     inkscape:window-y="-9"
     inkscape:window-maximized="1" />
  <metadata
     id="metadata5">
    <rdf:RDF>
      <cc:Work
         rdf:about="">
        <dc:format>image/svg+xml</dc:format>
        <dc:type
           rdf:resource="http://purl.org/dc/dcmitype/StillImage" />
        <dc:title></dc:title>
      </cc:Work>
    </rdf:RDF>
  </metadata>
  <g
     transform="translate(-4039.7049,2602.4715)"
     inkscape:label="Layer 1"
     inkscape:groupmode="layer"
     id="layer1">
    <g
       id="g923"
       transform="translate(-1984.4607,-980.93624)">
      <g
         id="g963"
         transform="translate(4509.3448,-1183.1145)">
        <g
           id="g989"
           transform="translate(705.89993,-1116.0312)">
          <g
             id="g1009"
             transform="translate(16.933333,685.8)"
             inkscape:export-xdpi="96"
             inkscape:export-ydpi="96">
            <path
               d="m 998.57584,562.89196 c -33.0273,-5.92675 -32.5189,-47.8031 -31.6514,-73.89619 6.7887,-104.39434 44.39946,-203.34261 66.82116,-304.88452 10.5371,-53.99924 29.7338,-109.867909 18.4742,-165.056859 -6.4344,-23.0879005 -35.5584,-13.3524905 -48.6533,-1.31684 -44.59446,34.46614 -83.49016,76.94672 -114.52706,123.992729 -30.2846,49.54861 -52.1182,106.55719 -97.0519,145.38242 1.6302,-24.66546 16.7564,-47.43168 27.2532,-69.79867 41.1155,-75.1315 89.5973,-148.676579 156.4034,-203.292009 22.252,-18.2471705 60.40766,-34.63546 83.31766,-8.9231805 22.2678,28.2447805 30.9011,67.6378505 18.7898,102.0199795 -23.8162,121.60104 -55.0722,242.12979 -68.8386,365.42407 -5.6549,23.81609 0.557,83.63873 33.4709,49.08836 50.8739,-54.03943 86.1743,-120.26723 124.4897,-183.29747 24.6168,-42.39737 48.4406,-85.19842 71.9371,-128.24511 26.5485,-34.61279 61.4501,-70.67302 107.2375,-75.19355 36.2376,0.26824 50.4513,45.17333 43.4676,75.03077 -10.8782,102.9916 -51.2708,201.97012 -50.7271,306.22205 69.1914,-68.94744 114.6402,-158.48366 189.0125,-222.79848 20.8425,-19.14862 58.7462,-28.9697 77.5817,-2.45534 31.0447,41.36964 35.5614,95.4697 45.6086,144.57388 32.6612,-18.64387 47.8779,-64.95581 88.4198,-69.69582 25.6793,-2.14349 30.9524,23.53813 8.0986,32.82279 -29.9491,14.15277 -44.2524,47.44144 -74.9457,60.68814 -24.1873,16.83515 -59.6594,-2.08631 -60.7573,-30.71535 -8.2557,-38.85202 -7.2742,-82.61718 -28.9999,-117.03022 -24.5671,-13.69047 -42.6012,22.69893 -58.6624,36.8792 -38.8011,45.20284 -78.4823,89.9417 -114.5343,137.66919 -13.707,16.05584 -25.9965,33.58943 -40.7757,48.40614 -22.0484,10.13108 -59.6038,16.93228 -70.3115,-11.62225 -14.4901,-53.00143 6.8133,-107.35396 19.5861,-158.75604 15.3701,-58.01873 40.2431,-114.51054 44.2984,-174.83755 2.4581,-29.95569 -36.071,-39.40352 -52.6912,-16.81586 -47.0268,46.70944 -75.6713,108.16633 -107.051,165.87125 -23.4013,39.37913 -36.5068,84.49461 -65.8653,120.26008 -32.6867,41.81791 -69.878,84.89753 -121.2197,103.24503 -5.5346,1.40819 -11.3365,1.83093 -17.00456,1.05523 z"
               style="fill:#333333;fill-opacity:1;stroke-width:0.530789"
               id="path1011-5" />
          </g>
        </g>
        <g
           id="g983"
           transform="translate(128.5119,535.21429)" />
      </g>
    </g>
  </g>
</svg>
