<?xml version="1.0" encoding="UTF-8" standalone="no"?>
<svg
   xmlns:dc="http://purl.org/dc/elements/1.1/"
   xmlns:cc="http://creativecommons.org/ns#"
   xmlns:rdf="http://www.w3.org/1999/02/22-rdf-syntax-ns#"
   xmlns:svg="http://www.w3.org/2000/svg"
   xmlns="http://www.w3.org/2000/svg"
   xmlns:sodipodi="http://sodipodi.sourceforge.net/DTD/sodipodi-0.dtd"
   xmlns:inkscape="http://www.inkscape.org/namespaces/inkscape"
   inkscape:version="1.0 (4035a4fb49, 2020-05-01)"
   sodipodi:docname="Logo@2x.svg"
   id="svg10"
   version="1.1"
   viewBox="0 0 38.999672 32"
   height="32"
   width="38.999672">
  <metadata
     id="metadata16">
    <rdf:RDF>
      <cc:Work
         rdf:about="">
        <dc:format>image/svg+xml</dc:format>
        <dc:type
           rdf:resource="http://purl.org/dc/dcmitype/StillImage" />
        <dc:title>Logo@2x</dc:title>
      </cc:Work>
    </rdf:RDF>
  </metadata>
  <defs
     id="defs14" />
  <sodipodi:namedview
     inkscape:current-layer="g8"
     inkscape:window-maximized="1"
     inkscape:window-y="-9"
     inkscape:window-x="-9"
     inkscape:cy="16"
     inkscape:cx="56.499672"
     inkscape:zoom="10.690265"
     fit-margin-bottom="0"
     fit-margin-right="0"
     fit-margin-left="0"
     fit-margin-top="0"
     showgrid="false"
     id="namedview12"
     inkscape:window-height="1321"
     inkscape:window-width="2400"
     inkscape:pageshadow="2"
     inkscape:pageopacity="0"
     guidetolerance="10"
     gridtolerance="10"
     objecttolerance="10"
     borderopacity="1"
     bordercolor="#666666"
     pagecolor="#ffffff" />
  <title
     id="title2">Logo@2x</title>
  <g
     transform="translate(-3.2800652e-4)"
     id="g8"
     fill-rule="evenodd"
     fill="none">
    <path
       id="path6"
       fill="#ec5453"
       fill-rule="nonzero"
       d="m 38.321,18.237 a 1.09,1.09 0 0 0 -0.455,-0.218 c -0.986,0.99 -2.197,2.03 -3.267,2.731 -0.497,0.33 -1.12,0.492 -1.533,0.492 -0.951,0 -1.357,-0.906 -1.483,-2.352 -0.168,-1.938 -0.273,-4.256 -0.273,-7.844 0,-3.68 -0.833,-6.18 -3.051,-6.376 A 3.739,3.739 0 0 0 27.972,4.656 c -1.357,0 -2.022,0.702 -2.883,2.471 -0.741,1.524 -1.896,3.75 -4.037,7.957 -1.855,3.63 -3.919,6.846 -5.69,9.072 -0.496,0.618 -0.88,1.04 -1.252,1.285 -0.245,0.162 -0.482,0.246 -0.727,0.246 -0.7,0 -1.21,-0.59 -1.379,-1.973 a 8.915,8.915 0 0 1 -0.063,-1.117 c 0,-2.844 1.07,-7.464 2.925,-14.269 C 16.224,3.378 15.65,0 12.683,0 h -0.035 c -0.672,0.007 -1.232,0.253 -1.763,0.674 -0.532,0.414 -1.057,1.32 -1.554,2.535 -0.56,1.37 -3.94,8.18 -9.327,11.692 -0.063,1.334 0.685,2.668 2.218,2.816 1.385,0.133 2.372,-0.457 3.645,-1.313 -0.098,0.428 -0.181,0.821 -0.265,1.187 -0.098,0.428 -0.175,0.8 -0.238,1.102 -0.098,0.442 -0.161,0.73 -0.175,0.815 A 23.83,23.83 0 0 0 4.804,21.825 C 4.04,28.636 7.19,32 10.878,32 c 0.615,0 1.224,-0.077 1.833,-0.232 4.058,-1.032 7.97,-5.709 12.595,-16.467 a 30.46,30.46 0 0 0 -0.028,3.28 c 0.308,6.165 2.736,8.019 6.172,8.019 2.596,0 5.03,-1.362 6.27,-3.048 0.91,-1.193 1.28,-2.514 1.28,-3.546 -0.028,-0.8 -0.28,-1.44 -0.679,-1.77 z" />
  </g>
</svg>
