<?xml version="1.0" encoding="utf-8"?>
<!-- Generator: Adobe Illustrator 21.1.0, SVG Export Plug-In . SVG Version: 6.00 Build 0)  -->
<svg version="1.1" id="Layer_1" xmlns="http://www.w3.org/2000/svg" xmlns:xlink="http://www.w3.org/1999/xlink" x="0px" y="0px"
	 viewBox="0 0 540 180" style="enable-background:new 0 0 540 180;" xml:space="preserve">
<style type="text/css">
	.st0{fill:#92216C;}
	.st1{fill:#C01C72;}
	.st2{fill:#E0156A;}
</style>
<g>
	<path id="_x3C_Path_x3E__10_" class="st0" d="M532.2,45.6c5.2,12.4,7.8,27.2,7.8,44.5c0,58.8-29.7,89.9-91.9,89.9h-56.4
		c-20.3,0-35.6-5.2-45.5-15.5c-12.3-12.7-13-29.9-12.9-34.9l0-22.2c10.4-7.2,21.1-13.8,32.2-19.8l0,39.8c0,0.4,0,0.8,0.1,1.2
		c0.6,13.2,12,23.6,26.1,23.6c0.6,0,56.4,0.1,56.4,0.1c42.7,0,59.3-19.7,59.3-62.1c0-18.6-3.2-32.8-10.5-42.9
		c11.2-1.1,22.5-1.6,34-1.6C531.4,45.6,531.8,45.6,532.2,45.6L532.2,45.6z"/>
	<path id="_x3C_Path_x3E__9_" class="st0" d="M423.8,62.5v49.2c0,8.1-7.2,14.6-16.1,14.6c-8.9,0-16.1-6.5-16.1-14.6l0-36.9
		C402,70.2,412.8,66.1,423.8,62.5z"/>
	<path id="_x3C_Path_x3E__8_" class="st1" d="M532.2,45.6c-0.5-1.2-1-2.3-1.5-3.4c-13.2-27.5-40.4-41.8-82.5-41.8h-40.5
		c-9,0-16.1,6.4-16.1,14.6l0,58.5l0,1.2c10.5-4.6,21.2-8.7,32.2-12.3V33.3c0-2.8,2.2-5.1,5-5.1h19.4c22.6,0,37.9,5.5,47.3,17
		c0.5,0.7,1,1.3,1.5,2c11.2-1.1,22.5-1.6,34-1.6C531.4,45.6,531.8,45.6,532.2,45.6L532.2,45.6z"/>
	<path id="_x3C_Path_x3E__7_" class="st1" d="M333.3,107.4l0-2.1l0-40.7c0-8.1,7.2-14.6,16.1-14.6c8.9,0,16.1,6.6,16.1,14.6v23
		C354.4,93.6,343.7,100.2,333.3,107.4L333.3,107.4z"/>
	<path id="_x3C_Path_x3E__6_" class="st2" d="M349.5,0C340.4,0,333,6.8,333,15.1v3.6c0,8.3,7.4,15.1,16.6,15.1
		c9.1,0,16.6-6.8,16.6-15.1v-3.6C366.1,6.8,358.7,0,349.5,0z"/>
	<path id="_x3C_Path_x3E__5_" class="st0" d="M298.5,134.9l17.7,21.9c1.8,2.6,2.7,5.4,2.7,8.3c0,8.4-7.2,14.9-16.3,14.9
		c-5.3,0-10.2-2.1-12.9-5.8L275.9,157C283.1,149.3,290.7,141.9,298.5,134.9L298.5,134.9z"/>
	<path id="_x3C_Path_x3E__4_" class="st1" d="M298.5,134.9l-1.4-1.8l-32.7-40.3c-1-1.3-1.5-2.8-1.5-4.4c-15.1,3-30.5,5.3-46.1,6.8
		l-49.6,61.2l-0.3,0.4c-1.7,2.4-2.6,5.2-2.6,8.2c0,8.4,7.1,14.9,16.3,14.9c5.3,0,10.2-2.2,12.9-5.7l42.8-53.5
		c1.3-1.7,3.3-2.6,5.3-2.6c2.1,0,4,1,5.3,2.6l27.5,34.3l1.6,2C283.1,149.3,290.7,141.9,298.5,134.9L298.5,134.9z"/>
	<path id="_x3C_Path_x3E__3_" class="st2" d="M216.7,95.2l2-2.4c0,0,0-0.1,0.1-0.1c1.9-2.5,1.9-6.1-0.1-8.5l-48.3-59.7
		c0,0-0.1-0.1-0.1-0.1c-2.8-3.3-2.9-7.7-2.9-8.6c0-8.4,7.2-14.9,16.3-14.9c5.4,0,9.8,2.1,13.4,6.3l39.1,48.7
		c1.3,1.7,3.3,2.6,5.3,2.6c2.1,0,4-1,5.3-2.6l39.3-48.9c3.6-4.3,8.1-6.4,13.5-6.4c9.1,0,16.3,6.5,16.3,14.9c0,0.8-0.1,5.3-3,8.7
		c0,0-0.1,0.1-0.1,0.1l-48.5,59.9c-0.4,0.4-0.6,0.9-0.8,1.4c-0.4,0.9-0.6,1.9-0.6,2.8C247.7,91.4,232.4,93.7,216.7,95.2L216.7,95.2z
		"/>
	<path id="_x3C_Path_x3E__2_" class="st1" d="M147.6,96.7v27.2c0,25.6-15.5,56.1-73.8,56.1C15.5,180,0,149.4,0,123.8V63.7
		c10.9,4.4,22,8.5,33.3,12.1v48.1c0,8.6,5.6,26.6,40.5,26.6c34.9-0.1,40.4-17.9,40.4-26.6V93.7C125.2,95.1,136.4,96.1,147.6,96.7
		L147.6,96.7z"/>
	<path id="_x3C_Path_x3E__1_" class="st2" d="M147.6,96.7V15.4c0-8.4-7.2-14.9-16.5-14.9c-9.2,0-17,6.5-17,14.9v78.3
		C125.2,95.1,136.4,96.1,147.6,96.7L147.6,96.7z"/>
	<path id="_x3C_Path_x3E_" class="st2" d="M0,63.7V15.4C0,7,7.2,0.5,16.5,0.5c9.2,0,16.8,6.5,16.8,14.9v60.4
		C22,72.2,10.9,68.2,0,63.7L0,63.7z"/>
</g>
</svg>
