<svg width="148" height="34" viewBox="0 0 148 34" fill="none" xmlns="http://www.w3.org/2000/svg">
<circle cx="17" cy="17" r="16" stroke="white" stroke-width="2"/>
<g clip-path="url(#clip0_96_482)">
<path d="M10.3327 27.3492C10.2317 27.3115 9.99866 27.1845 9.73459 27.0234C8.77447 26.4375 8.35721 26.1916 7.68754 25.8166C6.7008 25.2642 6.1481 24.9264 6.01953 24.7972C5.96897 24.7464 5.96533 24.7393 5.96533 24.6922C5.96533 24.6527 5.97335 24.6283 6.00215 24.5801C6.05783 24.487 6.07759 24.4691 6.1174 24.4756C6.13582 24.4785 6.24719 24.5216 6.36491 24.5712C6.80177 24.7553 6.87349 24.7835 6.9955 24.8188C7.16829 24.8687 7.2832 24.8824 7.39649 24.8665C7.59406 24.8387 7.6658 24.7702 7.95071 24.3372C8.19392 23.9676 8.38457 23.6375 8.93527 22.6326C9.51108 21.5818 9.70438 21.2392 9.81328 21.0765C9.89522 20.954 10.1386 20.5039 10.5183 19.7725C10.8249 19.1822 11.2456 18.3987 11.47 18.0005C11.6038 17.7631 12.4141 16.3561 12.589 16.0575C13.1231 15.1456 13.5016 14.6121 14.1697 13.8294C14.8825 12.9944 15.366 12.5355 15.9325 12.1565C16.5558 11.7394 17.3642 11.3633 17.9692 11.2089C18.7151 11.0185 19.3485 11.0667 20.0675 11.3687C20.9153 11.7249 21.3946 12.1229 21.5076 12.5644C21.5624 12.7786 21.5343 13.0107 21.4324 13.1854C21.386 13.2649 21.238 13.4116 21.1558 13.4594C20.9667 13.5696 20.6758 13.6071 20.5134 13.5423C20.3581 13.4804 20.2051 13.3389 20.0676 13.1301C19.9668 12.977 19.9174 12.8816 19.7995 12.612C19.6738 12.3246 19.5808 12.1335 19.5248 12.0472C19.464 11.9536 19.3742 11.8677 19.2512 11.7855C19.0684 11.6634 18.9991 11.6434 18.7581 11.6433C18.208 11.6429 17.8688 11.7501 17.4652 12.0519C17.1021 12.3235 16.5432 12.8842 16.1787 13.3425C15.7664 13.8611 15.4603 14.3491 14.5609 15.9228C14.3214 16.3417 14.0444 16.8244 13.9452 16.9953C13.7135 17.3947 13.5834 17.625 13.4007 17.9591C13.3197 18.1072 13.1827 18.3567 13.0964 18.5135C13.01 18.6702 12.8083 19.0456 12.6481 19.3476C12.3017 20.0008 12.2041 20.1794 11.8951 20.7259C11.6474 21.164 11.3819 21.6432 10.8792 22.56C10.5232 23.2093 10.4083 23.414 10.015 24.0989C9.29393 25.3545 9.14562 25.6636 9.16578 25.8689C9.17174 25.9295 9.21567 26.0312 9.26156 26.0904C9.32163 26.168 9.56039 26.3521 9.95115 26.6221C10.2467 26.8264 10.3354 26.8938 10.4208 26.9795C10.517 27.076 10.539 27.1259 10.539 27.2473C10.539 27.3311 10.5363 27.346 10.519 27.3587C10.4897 27.3803 10.404 27.3759 10.3327 27.3492V27.3492ZM17.3633 18.2744C17.1924 18.2578 17.0343 18.2166 16.7214 18.1073C16.0855 17.885 15.6062 17.6071 15.2927 17.279C15.1772 17.158 15.1125 17.0666 15.0513 16.9375C14.9758 16.7781 14.9504 16.6096 14.9827 16.4824C15.0431 16.2452 15.2487 15.9957 15.4812 15.8775C15.5679 15.8334 15.6593 15.816 15.8036 15.8161C15.9147 15.8161 15.9438 15.8199 16.015 15.8433C16.1332 15.8822 16.2181 15.9362 16.3194 16.0368C16.4873 16.2036 16.6101 16.4253 16.7987 16.9021C16.9435 17.2681 17.0051 17.3888 17.0926 17.4777C17.1678 17.5541 17.2933 17.6255 17.4175 17.6626C17.7237 17.754 18.1889 17.7432 18.5289 17.6367C19.0433 17.4755 19.8288 16.7797 20.4695 15.9176C20.7766 15.5044 20.9129 15.2841 21.6943 13.9384C22.631 12.325 23.317 11.1216 23.4839 10.7985C23.6422 10.4922 23.7371 10.3148 24.2252 9.4123C24.7908 8.36674 24.8741 8.19933 24.8858 8.08515C24.8907 8.03731 24.887 8.02202 24.8538 7.95595C24.7788 7.80616 24.5148 7.56964 24.1 7.28042C23.7198 7.01528 23.4555 6.76721 23.4555 6.67538C23.4555 6.64706 23.4867 6.62759 23.5321 6.62759C23.5646 6.62759 23.6058 6.64223 23.6886 6.68312C23.924 6.79944 24.5429 7.14997 25.6572 7.79815C25.9579 7.97301 26.4474 8.25515 26.7452 8.42513C28.0186 9.15199 28.0343 9.1627 28.0343 9.30297C28.0343 9.38673 28.0204 9.39994 27.9345 9.39795C27.843 9.39582 27.7576 9.36793 27.4001 9.22335C26.9482 9.0406 26.7408 8.97955 26.6452 9.00108C26.4806 9.03814 26.3158 9.2209 26.0474 9.66383C26.0077 9.72937 25.7812 10.1234 25.544 10.5395C24.7866 11.8682 24.0029 13.2371 23.8682 13.4669C23.3878 14.2864 23.1087 14.6756 22.404 15.5083C21.6756 16.3693 21.1165 16.9001 20.5319 17.2859C19.7007 17.8345 18.9043 18.1552 18.1394 18.2492C17.8826 18.2808 17.5428 18.2918 17.3633 18.2744V18.2744Z" fill="white"/>
</g>
<path d="M51.098 14.216C51.098 14.852 50.948 15.452 50.648 16.016C50.348 16.58 49.868 17.042 49.208 17.402C48.548 17.75 47.702 17.924 46.67 17.924H44.402V23H42.35V10.49H46.67C47.63 10.49 48.44 10.658 49.1 10.994C49.772 11.318 50.27 11.762 50.594 12.326C50.93 12.89 51.098 13.52 51.098 14.216ZM46.67 16.25C47.45 16.25 48.032 16.076 48.416 15.728C48.8 15.368 48.992 14.864 48.992 14.216C48.992 12.848 48.218 12.164 46.67 12.164H44.402V16.25H46.67ZM62.0371 13.082V23H59.9851V21.83C59.6611 22.238 59.2351 22.562 58.7071 22.802C58.1911 23.03 57.6391 23.144 57.0511 23.144C56.2711 23.144 55.5691 22.982 54.9451 22.658C54.3331 22.334 53.8471 21.854 53.4871 21.218C53.1391 20.582 52.9651 19.814 52.9651 18.914V13.082H54.9991V18.608C54.9991 19.496 55.2211 20.18 55.6651 20.66C56.1091 21.128 56.7151 21.362 57.4831 21.362C58.2511 21.362 58.8571 21.128 59.3011 20.66C59.7571 20.18 59.9851 19.496 59.9851 18.608V13.082H62.0371ZM67.1385 14.756V20.246C67.1385 20.618 67.2225 20.888 67.3905 21.056C67.5705 21.212 67.8705 21.29 68.2905 21.29H69.5505V23H67.9305C67.0065 23 66.2985 22.784 65.8065 22.352C65.3145 21.92 65.0685 21.218 65.0685 20.246V14.756H63.8985V13.082H65.0685V10.616H67.1385V13.082H69.5505V14.756H67.1385ZM80.4238 13.082V23H78.3718V21.83C78.0478 22.238 77.6218 22.562 77.0938 22.802C76.5778 23.03 76.0258 23.144 75.4378 23.144C74.6578 23.144 73.9558 22.982 73.3318 22.658C72.7198 22.334 72.2338 21.854 71.8738 21.218C71.5258 20.582 71.3518 19.814 71.3518 18.914V13.082H73.3858V18.608C73.3858 19.496 73.6078 20.18 74.0518 20.66C74.4958 21.128 75.1018 21.362 75.8698 21.362C76.6378 21.362 77.2438 21.128 77.6878 20.66C78.1438 20.18 78.3718 19.496 78.3718 18.608V13.082H80.4238ZM95.349 20.444H90.111L89.211 23H87.069L91.551 10.472H93.927L98.409 23H96.249L95.349 20.444ZM94.773 18.77L92.739 12.956L90.687 18.77H94.773ZM105.362 12.92C106.142 12.92 106.838 13.082 107.45 13.406C108.074 13.73 108.56 14.21 108.908 14.846C109.256 15.482 109.43 16.25 109.43 17.15V23H107.396V17.456C107.396 16.568 107.174 15.89 106.73 15.422C106.286 14.942 105.68 14.702 104.912 14.702C104.144 14.702 103.532 14.942 103.076 15.422C102.632 15.89 102.41 16.568 102.41 17.456V23H100.358V13.082H102.41V14.216C102.746 13.808 103.172 13.49 103.688 13.262C104.216 13.034 104.774 12.92 105.362 12.92ZM116.043 12.92C116.811 12.92 117.489 13.076 118.077 13.388C118.677 13.688 119.145 14.066 119.481 14.522V13.082H121.551V23.162C121.551 24.074 121.359 24.884 120.975 25.592C120.591 26.312 120.033 26.876 119.301 27.284C118.581 27.692 117.717 27.896 116.709 27.896C115.365 27.896 114.249 27.578 113.361 26.942C112.473 26.318 111.969 25.466 111.849 24.386H113.883C114.039 24.902 114.369 25.316 114.873 25.628C115.389 25.952 116.001 26.114 116.709 26.114C117.537 26.114 118.203 25.862 118.707 25.358C119.223 24.854 119.481 24.122 119.481 23.162V21.506C119.133 21.974 118.659 22.37 118.059 22.694C117.471 23.006 116.799 23.162 116.043 23.162C115.179 23.162 114.387 22.946 113.667 22.514C112.959 22.07 112.395 21.458 111.975 20.678C111.567 19.886 111.363 18.992 111.363 17.996C111.363 17 111.567 16.118 111.975 15.35C112.395 14.582 112.959 13.988 113.667 13.568C114.387 13.136 115.179 12.92 116.043 12.92ZM119.481 18.032C119.481 17.348 119.337 16.754 119.049 16.25C118.773 15.746 118.407 15.362 117.951 15.098C117.495 14.834 117.003 14.702 116.475 14.702C115.947 14.702 115.455 14.834 114.999 15.098C114.543 15.35 114.171 15.728 113.883 16.232C113.607 16.724 113.469 17.312 113.469 17.996C113.469 18.68 113.607 19.28 113.883 19.796C114.171 20.312 114.543 20.708 114.999 20.984C115.467 21.248 115.959 21.38 116.475 21.38C117.003 21.38 117.495 21.248 117.951 20.984C118.407 20.72 118.773 20.336 119.049 19.832C119.337 19.316 119.481 18.716 119.481 18.032ZM128.242 12.92C129.01 12.92 129.688 13.076 130.276 13.388C130.876 13.688 131.344 14.066 131.68 14.522V13.082H133.75V23.162C133.75 24.074 133.558 24.884 133.174 25.592C132.79 26.312 132.232 26.876 131.5 27.284C130.78 27.692 129.916 27.896 128.908 27.896C127.564 27.896 126.448 27.578 125.56 26.942C124.672 26.318 124.168 25.466 124.048 24.386H126.082C126.238 24.902 126.568 25.316 127.072 25.628C127.588 25.952 128.2 26.114 128.908 26.114C129.736 26.114 130.402 25.862 130.906 25.358C131.422 24.854 131.68 24.122 131.68 23.162V21.506C131.332 21.974 130.858 22.37 130.258 22.694C129.67 23.006 128.998 23.162 128.242 23.162C127.378 23.162 126.586 22.946 125.866 22.514C125.158 22.07 124.594 21.458 124.174 20.678C123.766 19.886 123.562 18.992 123.562 17.996C123.562 17 123.766 16.118 124.174 15.35C124.594 14.582 125.158 13.988 125.866 13.568C126.586 13.136 127.378 12.92 128.242 12.92ZM131.68 18.032C131.68 17.348 131.536 16.754 131.248 16.25C130.972 15.746 130.606 15.362 130.15 15.098C129.694 14.834 129.202 14.702 128.674 14.702C128.146 14.702 127.654 14.834 127.198 15.098C126.742 15.35 126.37 15.728 126.082 16.232C125.806 16.724 125.668 17.312 125.668 17.996C125.668 18.68 125.806 19.28 126.082 19.796C126.37 20.312 126.742 20.708 127.198 20.984C127.666 21.248 128.158 21.38 128.674 21.38C129.202 21.38 129.694 21.248 130.15 20.984C130.606 20.72 130.972 20.336 131.248 19.832C131.536 19.316 131.68 18.716 131.68 18.032ZM135.762 17.996C135.762 17 135.966 16.118 136.374 15.35C136.794 14.582 137.358 13.988 138.066 13.568C138.786 13.136 139.578 12.92 140.442 12.92C141.222 12.92 141.9 13.076 142.476 13.388C143.064 13.688 143.532 14.066 143.88 14.522V13.082H145.95V23H143.88V21.524C143.532 21.992 143.058 22.382 142.458 22.694C141.858 23.006 141.174 23.162 140.406 23.162C139.554 23.162 138.774 22.946 138.066 22.514C137.358 22.07 136.794 21.458 136.374 20.678C135.966 19.886 135.762 18.992 135.762 17.996ZM143.88 18.032C143.88 17.348 143.736 16.754 143.448 16.25C143.172 15.746 142.806 15.362 142.35 15.098C141.894 14.834 141.402 14.702 140.874 14.702C140.346 14.702 139.854 14.834 139.398 15.098C138.942 15.35 138.57 15.728 138.282 16.232C138.006 16.724 137.868 17.312 137.868 17.996C137.868 18.68 138.006 19.28 138.282 19.796C138.57 20.312 138.942 20.708 139.398 20.984C139.866 21.248 140.358 21.38 140.874 21.38C141.402 21.38 141.894 21.248 142.35 20.984C142.806 20.72 143.172 20.336 143.448 19.832C143.736 19.316 143.88 18.716 143.88 18.032Z" fill="white"/>
<defs>
<clipPath id="clip0_96_482">
<rect width="22.069" height="20.7448" fill="white" transform="translate(5.96533 6.62759)"/>
</clipPath>
</defs>
</svg>
